<svg width="181" height="38" viewBox="0 0 181 38" fill="none" xmlns="http://www.w3.org/2000/svg">
<g filter="url(#filter0_dd_20001_218)">
<rect x="3.1" y="2.1" width="31.8" height="31.8" rx="7.9" fill="white"/>
<rect x="3.1" y="2.1" width="31.8" height="31.8" rx="7.9" fill="url(#paint0_linear_20001_218)"/>
<rect x="3.1" y="2.1" width="31.8" height="31.8" rx="7.9" stroke="#D0D5DD" stroke-width="0.2"/>
<path d="M18.3546 13.1828C22.7105 11.4504 27.4742 12.8185 29.6373 14.9133C30.106 15.3671 30.5041 15.8275 30.845 16.2852C31.0394 15.2107 31.0552 14.1405 30.8681 13.1055C30.1847 9.32649 26.6195 7.18561 23.4233 8.29149C20.2415 9.3924 19.0005 11.5321 19.0005 11.5321C19.0005 11.5321 17.7595 9.3924 14.5777 8.29149C11.3812 7.18561 7.81603 9.32672 7.1328 13.1055C6.62842 15.8944 7.58356 18.9392 9.61033 21.6298C10.0372 21.7732 10.4847 21.8809 10.9586 21.9431C13.7978 22.3163 14.8184 21.557 16.0178 21.0486C16.8142 20.7113 17.4134 21.0942 17.3843 21.3626C17.3392 21.7786 15.7693 22.4895 16.106 22.6388C17.4351 23.2285 19.0718 23.2334 20.3053 22.18C21.838 20.8712 22.4114 21.7659 22.4114 21.7659C22.4114 21.7659 21.6502 23.7076 19.3581 24.6717C17.4457 25.4761 15.4419 25.6743 13.6107 25.4683C15.19 26.5846 17.0035 27.5204 19.0005 28.1883C24.7099 26.2784 28.9276 22.1871 30.4145 17.9096C29.4072 16.9157 28.1716 16.2996 26.6988 16.0763C23.8674 15.6471 22.8322 16.3863 21.6228 16.8708C20.8198 17.1926 20.2285 16.7978 20.263 16.5299C20.3161 16.1148 21.8999 15.4351 21.5661 15.279C20.249 14.6633 18.6125 14.626 17.3585 15.6549C15.8003 16.9332 15.2446 16.0274 15.2446 16.0274C15.2446 16.0274 16.0438 14.1015 18.3546 13.1828ZM17.2709 18.5052H18.3709V17.4052H19.6296V18.5052H20.7296V19.7639H19.6296V20.8639H18.3709V19.7639H17.2709V18.5052Z" fill="url(#paint1_linear_20001_218)"/>
<path d="M17.2709 18.5052H18.3709V17.4052H19.6296V18.5052H20.7295V19.7639H19.6378C21.2597 20.5834 24.2383 21.8027 27.8177 22.3451C28.9956 20.9517 29.8813 19.4428 30.4143 17.9096C29.4069 16.9157 28.1713 16.2996 26.6986 16.0763C23.8672 15.647 22.8319 16.3863 21.6226 16.8708C20.8196 17.1926 20.2282 16.7978 20.2627 16.5299C20.3159 16.1148 21.8997 15.4351 21.5659 15.279C20.2488 14.6633 18.6123 14.626 17.3583 15.6548C15.8 16.9332 15.2443 16.0274 15.2443 16.0274C15.2443 16.0274 16.0438 14.1013 18.3543 13.1823C22.7102 11.4499 27.4739 12.818 29.637 14.9128C30.1057 15.3666 30.5038 15.8271 30.8447 16.2847C31.0392 15.2102 31.055 14.14 30.8679 13.105C30.1844 9.326 26.6192 7.18512 23.423 8.291C20.2412 9.39191 19.0002 11.5316 19.0002 11.5316C19.0002 11.5316 17.7592 9.39191 14.5774 8.291C12.7519 7.65927 10.8067 8.0883 9.34619 9.27521C10.0323 10.7442 10.836 12.1168 13.1254 14.8773C14.9868 17.1222 17.2709 18.5052 17.2709 18.5052Z" fill="url(#paint2_linear_20001_218)"/>
<path opacity="0.31" d="M27.277 9.64954C24.2712 8.13944 21.169 10.4892 20.1851 11.7299C21.882 11.3725 23.3668 11.1892 25.2457 11.5839C28.0252 12.1679 29.0654 13.1715 30.3064 14.6542C30.0871 11.9069 28.3519 10.1896 27.277 9.64954Z" fill="url(#paint3_linear_20001_218)"/>
</g>
<path d="M46.728 28V10.12H53.4C54.616 10.12 55.688 10.344 56.616 10.792C57.56 11.224 58.296 11.864 58.824 12.712C59.352 13.544 59.616 14.56 59.616 15.76C59.616 16.944 59.344 17.96 58.8 18.808C58.272 19.64 57.544 20.28 56.616 20.728C55.688 21.176 54.616 21.4 53.4 21.4H49.992V28H46.728ZM49.992 18.52H53.448C54.04 18.52 54.552 18.408 54.984 18.184C55.416 17.944 55.752 17.616 55.992 17.2C56.232 16.784 56.352 16.304 56.352 15.76C56.352 15.2 56.232 14.72 55.992 14.32C55.752 13.904 55.416 13.584 54.984 13.36C54.552 13.12 54.04 13 53.448 13H49.992V18.52ZM62.0265 28V14.944H65.1705V28H62.0265ZM62.0265 13.48V10.12H65.1705V13.48H62.0265ZM74.1454 28.288C72.8814 28.288 71.7534 27.992 70.7614 27.4C69.7694 26.792 68.9854 25.968 68.4094 24.928C67.8334 23.888 67.5454 22.736 67.5454 21.472C67.5454 20.192 67.8334 19.04 68.4094 18.016C68.9854 16.992 69.7694 16.176 70.7614 15.568C71.7694 14.96 72.8894 14.656 74.1214 14.656C75.1134 14.656 75.9934 14.856 76.7614 15.256C77.5454 15.64 78.1614 16.184 78.6094 16.888L78.1294 17.536V9.832H81.2734V28H78.2974V25.48L78.6334 26.104C78.1854 26.808 77.5614 27.352 76.7614 27.736C75.9614 28.104 75.0894 28.288 74.1454 28.288ZM74.4814 25.408C75.2014 25.408 75.8334 25.24 76.3774 24.904C76.9214 24.568 77.3454 24.104 77.6494 23.512C77.9694 22.92 78.1294 22.24 78.1294 21.472C78.1294 20.72 77.9694 20.048 77.6494 19.456C77.3454 18.848 76.9214 18.376 76.3774 18.04C75.8334 17.704 75.2014 17.536 74.4814 17.536C73.7774 17.536 73.1454 17.712 72.5854 18.064C72.0254 18.4 71.5854 18.864 71.2654 19.456C70.9614 20.032 70.8094 20.704 70.8094 21.472C70.8094 22.24 70.9614 22.92 71.2654 23.512C71.5854 24.104 72.0254 24.568 72.5854 24.904C73.1454 25.24 73.7774 25.408 74.4814 25.408ZM90.3904 28.288C89.0464 28.288 87.8704 27.984 86.8624 27.376C85.8544 26.768 85.0704 25.944 84.5104 24.904C83.9504 23.864 83.6704 22.712 83.6704 21.448C83.6704 20.136 83.9504 18.976 84.5104 17.968C85.0864 16.944 85.8624 16.136 86.8384 15.544C87.8304 14.952 88.9344 14.656 90.1504 14.656C91.1744 14.656 92.0704 14.824 92.8384 15.16C93.6224 15.496 94.2864 15.96 94.8304 16.552C95.3744 17.144 95.7904 17.824 96.0784 18.592C96.3664 19.344 96.5104 20.16 96.5104 21.04C96.5104 21.264 96.4944 21.496 96.4624 21.736C96.4464 21.976 96.4064 22.184 96.3424 22.36H86.2624V19.96H94.5664L93.0784 21.088C93.2224 20.352 93.1824 19.696 92.9584 19.12C92.7504 18.544 92.3984 18.088 91.9024 17.752C91.4224 17.416 90.8384 17.248 90.1504 17.248C89.4944 17.248 88.9104 17.416 88.3984 17.752C87.8864 18.072 87.4944 18.552 87.2224 19.192C86.9664 19.816 86.8704 20.576 86.9344 21.472C86.8704 22.272 86.9744 22.984 87.2464 23.608C87.5344 24.216 87.9504 24.688 88.4944 25.024C89.0544 25.36 89.6944 25.528 90.4144 25.528C91.1344 25.528 91.7424 25.376 92.2384 25.072C92.7504 24.768 93.1504 24.36 93.4384 23.848L95.9824 25.096C95.7264 25.72 95.3264 26.272 94.7824 26.752C94.2384 27.232 93.5904 27.608 92.8384 27.88C92.1024 28.152 91.2864 28.288 90.3904 28.288ZM106.591 28V13H101.959V10.12H114.439V13H109.879V28H106.591ZM119.862 28.288C118.854 28.288 117.974 28.064 117.222 27.616C116.486 27.168 115.918 26.544 115.518 25.744C115.134 24.944 114.942 24.008 114.942 22.936V14.944H118.086V22.672C118.086 23.216 118.19 23.696 118.398 24.112C118.622 24.512 118.934 24.832 119.334 25.072C119.75 25.296 120.214 25.408 120.726 25.408C121.238 25.408 121.694 25.296 122.094 25.072C122.494 24.832 122.806 24.504 123.03 24.088C123.254 23.672 123.366 23.176 123.366 22.6V14.944H126.51V28H123.534V25.432L123.798 25.888C123.494 26.688 122.99 27.288 122.286 27.688C121.598 28.088 120.79 28.288 119.862 28.288ZM142.362 28.288C141.082 28.288 139.898 28.056 138.81 27.592C137.738 27.128 136.794 26.48 135.978 25.648C135.178 24.816 134.554 23.84 134.106 22.72C133.658 21.6 133.434 20.376 133.434 19.048C133.434 17.72 133.65 16.496 134.082 15.376C134.53 14.24 135.154 13.264 135.954 12.448C136.77 11.616 137.722 10.976 138.81 10.528C139.898 10.064 141.082 9.832 142.362 9.832C143.642 9.832 144.786 10.048 145.794 10.48C146.818 10.912 147.682 11.488 148.386 12.208C149.09 12.912 149.594 13.688 149.898 14.536L146.97 15.904C146.634 15.008 146.066 14.272 145.266 13.696C144.466 13.104 143.498 12.808 142.362 12.808C141.242 12.808 140.25 13.072 139.386 13.6C138.538 14.128 137.874 14.856 137.394 15.784C136.93 16.712 136.698 17.8 136.698 19.048C136.698 20.296 136.93 21.392 137.394 22.336C137.874 23.264 138.538 23.992 139.386 24.52C140.25 25.048 141.242 25.312 142.362 25.312C143.498 25.312 144.466 25.024 145.266 24.448C146.066 23.856 146.634 23.112 146.97 22.216L149.898 23.584C149.594 24.432 149.09 25.216 148.386 25.936C147.682 26.64 146.818 27.208 145.794 27.64C144.786 28.072 143.642 28.288 142.362 28.288ZM152.284 28V14.944H155.428V28H152.284ZM152.284 13.48V10.12H155.428V13.48H152.284ZM164.283 28.144C162.811 28.144 161.667 27.744 160.851 26.944C160.051 26.128 159.651 24.984 159.651 23.512V17.752H157.395V14.944H157.635C158.275 14.944 158.771 14.776 159.123 14.44C159.475 14.104 159.651 13.616 159.651 12.976V11.968H162.795V14.944H165.795V17.752H162.795V23.344C162.795 23.776 162.867 24.144 163.011 24.448C163.171 24.752 163.411 24.984 163.731 25.144C164.067 25.304 164.491 25.384 165.003 25.384C165.115 25.384 165.243 25.376 165.387 25.36C165.547 25.344 165.699 25.328 165.843 25.312V28C165.619 28.032 165.363 28.064 165.075 28.096C164.787 28.128 164.523 28.144 164.283 28.144ZM172.158 28.288C171.246 28.288 170.454 28.136 169.782 27.832C169.11 27.528 168.59 27.096 168.222 26.536C167.854 25.96 167.67 25.296 167.67 24.544C167.67 23.824 167.83 23.184 168.15 22.624C168.47 22.048 168.966 21.568 169.638 21.184C170.31 20.8 171.158 20.528 172.182 20.368L176.454 19.672V22.072L172.782 22.696C172.158 22.808 171.694 23.008 171.39 23.296C171.086 23.584 170.934 23.96 170.934 24.424C170.934 24.872 171.102 25.232 171.438 25.504C171.79 25.76 172.222 25.888 172.734 25.888C173.39 25.888 173.966 25.752 174.462 25.48C174.974 25.192 175.366 24.8 175.638 24.304C175.926 23.808 176.07 23.264 176.07 22.672V19.312C176.07 18.752 175.846 18.288 175.398 17.92C174.966 17.536 174.39 17.344 173.67 17.344C172.998 17.344 172.398 17.528 171.87 17.896C171.358 18.248 170.982 18.72 170.742 19.312L168.174 18.064C168.43 17.376 168.83 16.784 169.374 16.288C169.934 15.776 170.59 15.376 171.342 15.088C172.094 14.8 172.91 14.656 173.79 14.656C174.862 14.656 175.806 14.856 176.622 15.256C177.438 15.64 178.07 16.184 178.518 16.888C178.982 17.576 179.214 18.384 179.214 19.312V28H176.238V25.768L176.91 25.72C176.574 26.28 176.174 26.752 175.71 27.136C175.246 27.504 174.718 27.792 174.126 28C173.534 28.192 172.878 28.288 172.158 28.288Z" fill="white"/>
<defs>
<filter id="filter0_dd_20001_218" x="0" y="0" width="38" height="38" filterUnits="userSpaceOnUse" color-interpolation-filters="sRGB">
<feFlood flood-opacity="0" result="BackgroundImageFix"/>
<feColorMatrix in="SourceAlpha" type="matrix" values="0 0 0 0 0 0 0 0 0 0 0 0 0 0 0 0 0 0 127 0" result="hardAlpha"/>
<feOffset dy="1"/>
<feGaussianBlur stdDeviation="1"/>
<feColorMatrix type="matrix" values="0 0 0 0 0.0627451 0 0 0 0 0.0941176 0 0 0 0 0.156863 0 0 0 0.06 0"/>
<feBlend mode="normal" in2="BackgroundImageFix" result="effect1_dropShadow_20001_218"/>
<feColorMatrix in="SourceAlpha" type="matrix" values="0 0 0 0 0 0 0 0 0 0 0 0 0 0 0 0 0 0 127 0" result="hardAlpha"/>
<feOffset dy="1"/>
<feGaussianBlur stdDeviation="1.5"/>
<feColorMatrix type="matrix" values="0 0 0 0 0.0627451 0 0 0 0 0.0941176 0 0 0 0 0.156863 0 0 0 0.1 0"/>
<feBlend mode="normal" in2="effect1_dropShadow_20001_218" result="effect2_dropShadow_20001_218"/>
<feBlend mode="normal" in="SourceGraphic" in2="effect2_dropShadow_20001_218" result="shape"/>
</filter>
<linearGradient id="paint0_linear_20001_218" x1="19" y1="2" x2="19" y2="34" gradientUnits="userSpaceOnUse">
<stop stop-color="white"/>
<stop offset="1" stop-color="#D0D5DD"/>
</linearGradient>
<linearGradient id="paint1_linear_20001_218" x1="10.1989" y1="24.2137" x2="27.8347" y2="6.57791" gradientUnits="userSpaceOnUse">
<stop stop-color="#0076C1"/>
<stop offset="0.0737" stop-color="#0B82C6"/>
<stop offset="0.2766" stop-color="#269ED3"/>
<stop offset="0.4546" stop-color="#36AFDA"/>
<stop offset="0.587" stop-color="#3CB5DD"/>
</linearGradient>
<linearGradient id="paint2_linear_20001_218" x1="10.1388" y1="24.2537" x2="27.8274" y2="6.56509" gradientUnits="userSpaceOnUse">
<stop stop-color="#00A482"/>
<stop offset="1" stop-color="#79DD83"/>
</linearGradient>
<linearGradient id="paint3_linear_20001_218" x1="24.8608" y1="13.5073" x2="28.5288" y2="10.1132" gradientUnits="userSpaceOnUse">
<stop stop-color="#00A482"/>
<stop offset="1" stop-color="#79DD83"/>
</linearGradient>
</defs>
</svg>
